<?xml version="1.0" standalone="no"?><!DOCTYPE svg PUBLIC "-//W3C//DTD SVG 1.1//EN" "http://www.w3.org/Graphics/SVG/1.1/DTD/svg11.dtd"><svg width="200" height="200" viewBox="0 0 200 200" version="1.1" xmlns="http://www.w3.org/2000/svg" xmlns:xlink="http://www.w3.org/1999/xlink"><defs><style type="text/css"><![CDATA[
@font-face { font-family: ifont; src: url(http://at.alicdn.com/t/font_1442373896_4754455.eot?#iefix) format(embedded-opentype), url(http://at.alicdn.com/t/font_1442373896_4754455.woff) format(woff), url(http://at.alicdn.com/t/font_1442373896_4754455.ttf) format(truetype), url(http://at.alicdn.com/t/font_1442373896_4754455.svg#ifont) format(svg); }

]]></style></defs><g class="transform-group"><g transform="scale(0.1953125, 0.1953125)"><path d="M877.864 897.772 145.152 897.772c-41.505 0-75.152-33.647-75.152-75.148L70 334.146c0-41.501 33.647-75.148 75.152-75.148l177.971 0 10.822-90.649c2.725-22.921 25.232-40.921 50.335-40.921l250.059 0c25.1 0 47.984 18 51.217 40.921l12.758 90.649 179.551 0c41.501 0 75.151 33.647 75.151 75.148l0 488.479C953.016 864.125 919.365 897.772 877.864 897.772L877.864 897.772zM915.438 334.146c0-20.757-16.813-37.574-37.573-37.574L746.353 296.572l-42.761 0-43.889 0-18.337-121.63c-0.809-5.337-6.84-9.602-13.507-9.602L386.851 165.34c-6.648 0-12.529 4.265-13.113 9.602l-13.639 121.63-41.464 0-41.97 0L145.152 296.572c-20.762 0-37.578 16.817-37.578 37.574l0 488.479c0 20.758 16.816 37.574 37.578 37.574l732.712 0c20.761 0 37.573-16.816 37.573-37.574L915.437 334.146 915.438 334.146zM521.146 784.822c-114.155 0-206.704-92.436-206.704-206.476 0-114.042 92.549-206.477 206.704-206.477 114.151 0 206.682 92.435 206.682 206.477C727.828 692.387 635.298 784.822 521.146 784.822L521.146 784.822zM520.882 409.051c-93.394 0-169.089 75.733-169.089 169.144 0 93.412 75.695 169.146 169.089 169.146 93.375 0 169.089-75.733 169.089-169.146C689.971 484.784 614.257 409.051 520.882 409.051L520.882 409.051zM562.082 705.652c-9.43 1.857-19.164 2.798-28.932 2.798-7.291 0-13.19-5.653-13.19-12.661 0-6.99 5.899-12.644 13.19-12.644 8.005 0 15.95-0.771 23.616-2.274 7.214-1.373 14.127 3.023 15.593 9.846C573.825 697.575 569.223 704.242 562.082 705.652L562.082 705.652zM473.537 694.661c-2.027 0-4.096-0.451-6.032-1.411-48.04-23.707-77.892-70.622-77.892-122.379 0-7.009 5.899-12.665 13.209-12.665 7.288 0 13.187 5.656 13.187 12.665 0 42.25 24.369 80.541 63.596 99.892 6.483 3.195 9.018 10.821 5.675 17.04C482.952 692.163 478.327 694.661 473.537 694.661L473.537 694.661zM239.088 221.419 126.363 221.419c-10.37 0-18.79-8.415-18.79-18.785 0-10.37 8.419-18.79 18.79-18.79l112.725 0c10.37 0 18.786 8.419 18.786 18.79C257.874 213.004 249.458 221.419 239.088 221.419L239.088 221.419zM239.088 221.419" fill="#ffffff"></path></g></g></svg>