<?xml version="1.0" standalone="no"?><!DOCTYPE svg PUBLIC "-//W3C//DTD SVG 1.1//EN" "http://www.w3.org/Graphics/SVG/1.1/DTD/svg11.dtd"><svg width="200" height="200" viewBox="0 0 200 200" version="1.1" xmlns="http://www.w3.org/2000/svg" xmlns:xlink="http://www.w3.org/1999/xlink"><defs><style type="text/css"><![CDATA[
@font-face { font-family: ifont; src: url(http://at.alicdn.com/t/font_1442373896_4754455.eot?#iefix) format(embedded-opentype), url(http://at.alicdn.com/t/font_1442373896_4754455.woff) format(woff), url(http://at.alicdn.com/t/font_1442373896_4754455.ttf) format(truetype), url(http://at.alicdn.com/t/font_1442373896_4754455.svg#ifont) format(svg); }

]]></style></defs><g class="transform-group"><g transform="scale(0.1953125, 0.1953125)"><path d="M620.009683 0.521974 395.26619 0.521974c-27.566357 0-49.604909 24.487735-49.604909 54.758121 0 30.339983 22.078468 54.900385 49.604909 54.900385L621.399566 110.18048c26.178521 0 48.250848-24.561426 48.250848-54.900385C669.656555 25.009709 647.610838 0.521974 620.009683 0.521974L620.009683 0.521974 620.009683 0.521974zM864.04369 37.069351 752.128415 37.069351c1.138108 6.000652 1.79518 12.068853 1.79518 18.210745 0.034798 46.093356-33.454426 91.456973-73.289215 91.456973L336.805125 146.737068c-41.923707 0-75.457964-45.363617-75.457964-91.456973 0.039916-6.141892 0.696989-12.210093 1.835096-18.210745L149.913944 37.069351c-91.049629 0-113.419788 51.539283-113.419788 125.888821l0 736.472271c0 79.868131 32.031792 124.569558 120.29449 124.569558l700.371131 0c88.262698 0 131.168944-35.047982 131.168944-124.529642L988.32872 162.958171c0.007164-74.342373-40.163325-125.881656-124.285031-125.881656l0 0L864.04369 37.069351zM749.060027 764.221831 262.37678 764.221831c-17.938499 0-35.846294-21.972026-35.846294-39.910526 0-17.878114 15.156686-33.193439 33.095185-33.193439l485.294388 0c17.933382 0 33.088021 13.921348 34.45027 33.193439C779.369306 742.256969 766.993409 764.221831 749.060027 764.221831L749.060027 764.221831 749.060027 764.221831zM751.037387 569.220609 264.347999 569.220609c-17.940546 0-29.362561-19.258786-29.362561-37.210591 0-17.945664 15.16385-35.893374 33.095185-35.893374l485.294388 0c17.940546 0 33.095185 16.628447 34.45027 35.893374C787.825281 549.954659 768.938018 569.220609 751.037387 569.220609L751.037387 569.220609 751.037387 569.220609zM751.037387 368.944382 264.347999 368.944382c-17.940546 0-29.362561-19.264927-29.362561-37.211614 0-17.947711 15.16385-35.893374 33.095185-35.893374l485.294388 0c17.940546 0 33.095185 16.634588 34.45027 35.893374C787.825281 349.679455 768.938018 368.944382 751.037387 368.944382L751.037387 368.944382 751.037387 368.944382zM751.037387 368.944382" fill="#cdcdcd"></path></g></g></svg>